<svg id="visual" viewBox="0 0 900 600" width="900" height="600" xmlns="http://www.w3.org/2000/svg" xmlns:xlink="http://www.w3.org/1999/xlink" version="1.1"><path d="M0 405L15 399.3C30 393.7 60 382.3 90 382.5C120 382.7 150 394.3 180 408C210 421.7 240 437.3 270 437.8C300 438.3 330 423.7 360 422C390 420.3 420 431.7 450 441C480 450.3 510 457.7 540 449C570 440.3 600 415.7 630 411.5C660 407.3 690 423.7 720 428.5C750 433.3 780 426.7 810 425.8C840 425 870 430 885 432.5L900 435L900 601L885 601C870 601 840 601 810 601C780 601 750 601 720 601C690 601 660 601 630 601C600 601 570 601 540 601C510 601 480 601 450 601C420 601 390 601 360 601C330 601 300 601 270 601C240 601 210 601 180 601C150 601 120 601 90 601C60 601 30 601 15 601L0 601Z" fill="#20aad8" stroke-linecap="round" stroke-linejoin="miter"></path></svg>