<svg id="visual" viewBox="0 0 900 600" width="900" height="600" xmlns="http://www.w3.org/2000/svg" xmlns:xlink="http://www.w3.org/1999/xlink" version="1.1"><path d="M0 373L15 366.3C30 359.7 60 346.3 90 346.5C120 346.7 150 360.3 180 376.2C210 392 240 410 270 410.5C300 411 330 394 360 392.2C390 390.3 420 403.7 450 414.7C480 425.7 510 434.3 540 424.2C570 414 600 385 630 380C660 375 690 394 720 399.7C750 405.3 780 397.7 810 396.8C840 396 870 402 885 405L900 408L900 601L885 601C870 601 840 601 810 601C780 601 750 601 720 601C690 601 660 601 630 601C600 601 570 601 540 601C510 601 480 601 450 601C420 601 390 601 360 601C330 601 300 601 270 601C240 601 210 601 180 601C150 601 120 601 90 601C60 601 30 601 15 601L0 601Z" fill="#20aad8" stroke-linecap="round" stroke-linejoin="miter"></path></svg>