<svg id="visual" viewBox="0 0 900 600" width="900" height="600" xmlns="http://www.w3.org/2000/svg" xmlns:xlink="http://www.w3.org/1999/xlink" version="1.1"><path d="M0 421L15 416.7C30 412.3 60 403.7 90 398.8C120 394 150 393 180 405C210 417 240 442 270 443.2C300 444.3 330 421.7 360 423C390 424.3 420 449.7 450 457.5C480 465.3 510 455.7 540 441C570 426.3 600 406.7 630 411.2C660 415.7 690 444.3 720 464.7C750 485 780 497 810 490C840 483 870 457 885 444L900 431L900 601L885 601C870 601 840 601 810 601C780 601 750 601 720 601C690 601 660 601 630 601C600 601 570 601 540 601C510 601 480 601 450 601C420 601 390 601 360 601C330 601 300 601 270 601C240 601 210 601 180 601C150 601 120 601 90 601C60 601 30 601 15 601L0 601Z" fill="#20aad8" stroke-linecap="round" stroke-linejoin="miter"></path></svg>